<svg width="116.000000" height="56.000000" viewBox="0 0 116 56" fill="none" xmlns="http://www.w3.org/2000/svg" xmlns:xlink="http://www.w3.org/1999/xlink">
	<desc>
			Created with Pixso.
	</desc>
	<defs>
		<clipPath id="clip24463_1145">
			<rect id="Amgen 300х112 MAX" rx="0.000000" width="115.000000" height="55.000000" transform="translate(0.500000 0.500000)" fill="white" fill-opacity="0"/>
		</clipPath>
	</defs>
	<rect id="Amgen 300х112 MAX" rx="0.000000" width="115.000000" height="55.000000" transform="translate(0.500000 0.500000)" fill="#FFFFFF" fill-opacity="0"/>
	<g clip-path="url(#clip24463_1145)">
		<path id="Logo" d="M62.24 20.67C64.74 20.67 66.56 21.77 67.89 23.6L74.66 23.6C73.54 18.94 68.26 14.5 62.29 14.5C56.42 14.5 50.82 18.21 49.6 23.7L49.6 15.44C42.5 15.44 37.81 23.29 36.69 27.89C35.57 23.29 30.88 15.44 23.78 15.44L23.78 40.34L29.97 40.34L29.97 26.01C29.97 26.01 33.54 29.09 33.54 40.34L39.89 40.34C39.89 29.09 43.46 26.01 43.46 26.01L43.46 40.34L49.6 40.34L49.6 31.71C51.04 37.94 56.16 41.5 62.24 41.5C68.37 41.5 73.86 38.04 75.36 31.34L75.36 40.24L87.89 40.24L87.89 34.33L81.33 34.33L81.33 31.19L87.89 31.19L87.89 25.12L81.33 25.12L81.33 21.77L87.89 21.77L87.89 15.7L75.36 15.7L75.36 25.12L61.28 25.12L61.28 31.19L68.96 31.19C67.78 33.7 65.22 35.43 62.24 35.43C58.13 35.43 54.77 32.13 54.77 28.05C54.77 23.97 58.13 20.67 62.24 20.67ZM113.33 14.7C111.84 14.7 110.61 15.86 110.61 17.32C110.61 18.79 111.84 19.94 113.33 19.99C114.77 19.99 116 18.79 116 17.32C116 15.91 114.82 14.7 113.33 14.7ZM113.33 15.18C114.56 15.18 115.52 16.12 115.52 17.32C115.52 18.47 114.56 19.47 113.33 19.47C112.1 19.47 111.14 18.52 111.14 17.32C111.14 16.12 112.1 15.18 113.33 15.18ZM8.1 34.17C7.94 34.85 6.82 38.62 6.4 40.34L0 40.34C0.85 37.26 2.5 31.97 4.26 28.41C5.97 24.91 8.1 21.04 11.68 18.42C11.7 18.4 11.72 18.39 11.74 18.37C13.41 17.16 16.55 14.87 22.34 15.38L22.34 40.34L16.16 40.34L16.16 34.17L8.1 34.17ZM96.05 28.78C96.05 28.78 100.58 33.59 101.49 40.34L107.89 40.29L107.89 15.8L101.49 15.8L101.49 26.11C96.16 18.58 90.93 15.8 89.49 15.8L89.49 40.34L96.05 40.34L96.05 28.78ZM114.02 18.73L114.66 18.73L113.92 17.58C114.45 17.53 114.72 17.32 114.72 16.8C114.72 16.48 114.66 16.22 114.4 16.06C114.18 15.91 113.86 15.91 113.6 15.91L112.21 15.91L112.21 18.73L112.8 18.73L112.8 17.53L113.38 17.53L114.02 18.73ZM114.18 16.69C114.18 17.06 113.97 17.11 113.65 17.11L112.8 17.11L112.8 16.33L113.49 16.33C113.76 16.33 114.18 16.33 114.18 16.69ZM16.16 28.47L16.16 22.66C14.18 24.02 12.05 26.53 10.77 28.47L16.16 28.47Z" fill="#0063C3" fill-opacity="1.000000" fill-rule="evenodd"/>
	</g>
</svg>
