<svg width="150.239746" height="20.357910" viewBox="0 0 150.24 20.3579" fill="none" xmlns="http://www.w3.org/2000/svg" xmlns:xlink="http://www.w3.org/1999/xlink">
	<desc>
			Created with Pixso.
	</desc>
	<defs/>
	<path id="Fill 3" d="M150.24 8.22L150.24 5.91L149.74 5.91L149.16 7.69L149.14 7.69L148.57 5.91L148.05 5.91L148.05 8.22L148.35 8.22L148.35 6.23L148.37 6.23L149 8.22L149.28 8.22L149.92 6.23L149.94 6.23L149.94 8.22L150.24 8.22ZM147.14 8.22L147.14 6.17L147.77 6.17L147.77 5.91L146.22 5.91L146.22 6.17L146.84 6.17L146.84 8.22L147.14 8.22ZM23.61 11.23L23.61 11.17C24.81 10.76 25.56 10.05 25.56 8.77L25.56 8.58C25.56 7.11 24.35 5.91 21.89 5.91L18.48 5.91L18.48 17.34L22.14 17.34C24.53 17.34 26.17 16.15 26.17 14.25L26.17 14.14C26.17 12.66 25.29 11.57 23.61 11.23ZM19.97 7.2L21.68 7.2C23.3 7.2 24.13 7.8 24.13 8.89L24.13 9C24.13 10.31 22.98 10.74 21.47 10.74L19.97 10.74L19.97 7.2ZM24.65 14.12C24.65 15.54 23.52 16.06 21.87 16.06L19.97 16.06L19.97 11.94L21.89 11.94C23.52 11.94 24.65 12.48 24.65 13.94L24.65 14.12ZM31.04 8.68L31.47 8.68L31.47 10.02L31.12 10.02C29.73 10.02 28.82 10.71 28.82 12.52L28.82 17.34L27.43 17.34L27.43 8.68L28.82 8.68L28.82 10.23L28.89 10.23C29.14 9.45 29.78 8.68 31.04 8.68ZM32.71 8.68L34.1 8.68L34.1 17.34L32.71 17.34L32.71 8.68ZM34.25 6.74C34.25 7.41 33.94 7.72 33.4 7.72C32.86 7.72 32.56 7.41 32.56 6.74C32.56 6.07 32.86 5.74 33.4 5.74C33.94 5.74 34.25 6.07 34.25 6.74ZM41.81 14.95C41.81 16.62 40.56 17.5 38.72 17.5C36.86 17.5 35.64 16.72 35.54 14.95L36.93 14.95C36.98 16.02 37.77 16.36 38.72 16.36C39.66 16.36 40.42 15.95 40.42 15.05C40.42 12.95 35.64 14.4 35.64 10.99C35.64 9.56 36.7 8.52 38.64 8.52C40.41 8.52 41.58 9.38 41.72 11.07L40.32 11.07C40.24 10.05 39.53 9.66 38.64 9.66C37.63 9.66 37 10.12 37 10.99C37 13.03 41.81 11.77 41.81 14.95ZM45.02 8.68L46.91 8.68L46.91 9.89L45.02 9.89L45.02 14.68C45.02 15.93 45.35 16.2 46.2 16.2C46.43 16.2 46.69 16.16 46.91 16.15L46.91 17.32C46.65 17.37 46.3 17.4 46.05 17.4C44.33 17.4 43.63 16.73 43.63 14.89L43.63 9.89L42.16 9.89L42.16 8.68L43.63 8.68L43.63 5.91L45.02 5.91L45.02 8.68ZM51.02 8.52C48.85 8.52 47.69 9.99 47.69 12.37L47.69 13.65C47.69 16.03 48.85 17.5 51.02 17.5C53.19 17.5 54.35 16.03 54.35 13.65L54.35 12.37C54.35 9.99 53.19 8.52 51.02 8.52ZM52.94 13.57C52.94 15.62 52.21 16.29 51.02 16.29C49.83 16.29 49.1 15.62 49.1 13.57L49.1 12.46C49.1 10.4 49.83 9.73 51.02 9.73C52.21 9.73 52.94 10.4 52.94 12.46L52.94 13.57ZM55.82 5.91L57.21 5.91L57.21 17.34L55.82 17.34L55.82 5.91ZM70.62 5.91L72.98 5.91L72.98 17.34L71.51 17.34L71.51 7.49L71.42 7.49L68.46 15.45L66.66 15.45L63.73 7.49L63.64 7.49L63.64 17.34L62.19 17.34L62.19 5.91L64.66 5.91L67.58 13.85L67.67 13.85L70.62 5.91ZM79.74 8.68L81.15 8.68L77.26 20.12L75.82 20.12L76.8 17.4L73.95 8.68L75.42 8.68L77.52 15.43L77.59 15.43L79.74 8.68ZM84.89 8.52C82.72 8.52 81.56 10.05 81.56 12.37L81.56 13.65C81.56 16.03 82.72 17.5 84.89 17.5C86.62 17.5 87.65 16.55 88 14.94L86.57 14.94C86.33 15.93 85.76 16.29 84.89 16.29C83.69 16.29 82.97 15.62 82.97 13.57L82.97 13.45L88.05 13.45L88.05 12.37C88.05 10.05 87.05 8.52 84.89 8.52ZM84.89 9.73C86.01 9.73 86.62 10.38 86.64 12.37L82.97 12.37C82.99 10.38 83.71 9.73 84.89 9.73ZM93.2 8.68L93.63 8.68L93.63 10.02L93.29 10.02C91.9 10.02 90.99 10.71 90.99 12.52L90.99 17.34L89.59 17.34L89.59 8.68L90.99 8.68L90.99 10.23L91.05 10.23C91.3 9.45 91.95 8.68 93.2 8.68ZM100.65 14.95C100.65 16.62 99.4 17.5 97.56 17.5C95.7 17.5 94.48 16.72 94.38 14.95L95.77 14.95C95.82 16.02 96.61 16.36 97.56 16.36C98.5 16.36 99.26 15.95 99.26 15.05C99.26 12.95 94.48 14.4 94.48 10.99C94.48 9.56 95.54 8.52 97.47 8.52C99.25 8.52 100.42 9.38 100.55 11.07L99.16 11.07C99.08 10.05 98.37 9.66 97.47 9.66C96.46 9.66 95.84 10.12 95.84 10.99C95.84 13.03 100.65 11.77 100.65 14.95ZM111.71 14.32C111.71 16.36 110.28 17.5 108.1 17.5C106.04 17.5 104.36 16.52 104.14 14.33L105.68 14.33C105.86 15.62 106.79 16.23 108.08 16.23C109.55 16.23 110.22 15.36 110.22 14.4C110.22 11.15 104.32 13.03 104.32 8.76C104.32 6.94 105.8 5.74 107.85 5.74C109.83 5.74 111.49 6.71 111.59 8.96L110.05 8.96C109.92 7.57 109.02 7.02 107.83 7.02C106.42 7.02 105.81 7.83 105.81 8.7C105.81 11.57 111.71 9.87 111.71 14.32ZM117.99 9.73L117.92 9.73C117.55 8.96 116.83 8.52 115.92 8.52C113.75 8.52 112.76 9.99 112.76 12.37L112.76 13.65C112.76 16.03 113.75 17.5 115.92 17.5C116.83 17.5 117.55 17.06 117.92 16.29L117.99 16.29L117.99 17.34L117.99 20.12L119.38 20.12L119.38 8.68L117.99 8.68L117.99 9.73ZM116.09 16.29C114.89 16.29 114.16 15.62 114.16 13.57L114.16 12.46C114.16 10.4 114.89 9.73 116.09 9.73C117.28 9.73 118.01 10.4 118.01 12.46L118.01 13.57C118.01 15.62 117.28 16.29 116.09 16.29ZM125.77 8.68L127.16 8.68L127.16 17.34L125.77 17.34L125.77 16.23L125.7 16.23C125.37 16.93 124.66 17.5 123.55 17.5C121.91 17.5 120.9 16.59 120.9 14.55L120.9 8.68L122.31 8.68L122.31 14.35C122.31 15.74 122.89 16.34 123.93 16.34C124.94 16.34 125.77 15.67 125.77 13.99L125.77 8.68ZM128.94 8.68L130.33 8.68L130.33 17.34L128.94 17.34L128.94 8.68ZM135.66 8.52C134.73 8.52 134.03 8.96 133.66 9.73L133.59 9.73L133.59 8.68L133.59 5.91L132.2 5.91L132.2 17.34L133.59 17.34L133.59 16.29L133.66 16.29C134.03 17.06 134.73 17.5 135.66 17.5C137.83 17.5 138.82 16.03 138.82 13.65L138.82 12.37C138.82 9.99 137.83 8.52 135.66 8.52ZM137.41 13.57C137.41 15.62 136.69 16.29 135.49 16.29C134.3 16.29 133.57 15.62 133.57 13.57L133.57 12.46C133.57 10.4 134.3 9.73 135.49 9.73C136.69 9.73 137.41 10.4 137.41 12.46L137.41 13.57ZM143.64 8.52C142.72 8.52 142.01 8.96 141.64 9.73L141.58 9.73L141.58 8.68L141.58 5.91L140.19 5.91L140.19 17.34L141.58 17.34L141.58 16.29L141.64 16.29C142.01 17.06 142.72 17.5 143.64 17.5C145.81 17.5 146.81 16.03 146.81 13.65L146.81 12.37C146.81 9.99 145.81 8.52 143.64 8.52ZM145.4 13.57C145.4 15.62 144.67 16.29 143.48 16.29C142.29 16.29 141.56 15.62 141.56 13.57L141.56 12.46C141.56 10.4 142.29 9.73 143.48 9.73C144.67 9.73 145.4 10.4 145.4 12.46L145.4 13.57ZM130.49 6.74C130.49 7.41 130.18 7.72 129.64 7.72C129.1 7.72 128.79 7.41 128.79 6.74C128.79 6.07 129.1 5.74 129.64 5.74C130.18 5.74 130.49 6.07 130.49 6.74Z" fill="#595454" fill-opacity="1.000000" fill-rule="evenodd"/>
	<path id="Fill 1" d="M5.71 19.83C5.56 20.15 5.23 20.35 4.87 20.35C4.73 20.35 4.6 20.32 4.47 20.26C1.54 18.86 0 16.39 0 13.13L0 9.44C0 8.93 0.41 8.52 0.93 8.52C1.44 8.52 1.86 8.93 1.86 9.44L1.86 13.13C1.86 15.68 3.01 17.52 5.28 18.6C5.74 18.83 5.94 19.38 5.71 19.83ZM2.95 11.28C2.95 11.8 3.38 12.23 3.91 12.23C4.44 12.23 4.87 11.8 4.87 11.28L4.87 3.75C4.87 3.23 4.44 2.81 3.91 2.81C3.38 2.81 2.95 3.23 2.95 3.75L2.95 11.28ZM5.92 11.06C5.92 11.58 6.34 12.01 6.87 12.01C7.4 12.01 7.83 11.58 7.83 11.06L7.83 0.94C7.83 0.42 7.4 0 6.87 0C6.34 0 5.92 0.42 5.92 0.94L5.92 11.06ZM8.88 11.76C8.88 12.28 9.31 12.7 9.83 12.7C10.36 12.7 10.79 12.28 10.79 11.76L10.79 2.67C10.79 2.15 10.36 1.73 9.83 1.73C9.31 1.73 8.88 2.15 8.88 2.67L8.88 11.76ZM11.84 12.96C11.84 13.47 12.25 13.88 12.77 13.88C13.28 13.88 13.69 13.47 13.69 12.96L13.69 6.82C13.69 6.31 13.28 5.9 12.77 5.9C12.25 5.9 11.84 6.31 11.84 6.82L11.84 12.96Z" fill="#BE2BBB" fill-opacity="1.000000" fill-rule="evenodd"/>
</svg>
