<svg width="56.000000" height="56.000000" viewBox="0 0 56 56" fill="none" xmlns="http://www.w3.org/2000/svg" xmlns:xlink="http://www.w3.org/1999/xlink">
	<desc>
			Created with Pixso.
	</desc>
	<defs>
		<clipPath id="clip24463_1128">
			<rect id="Bayer 300х112 MAX" rx="0.000000" width="55.000000" height="55.000000" transform="translate(0.500000 0.500000)" fill="white" fill-opacity="0"/>
		</clipPath>
	</defs>
	<rect id="Bayer 300х112 MAX" rx="0.000000" width="55.000000" height="55.000000" transform="translate(0.500000 0.500000)" fill="#FFFFFF" fill-opacity="0"/>
	<g clip-path="url(#clip24463_1128)">
		<path id="Vector" d="M26.02 8.86L29.21 8.86C29.57 8.86 29.86 8.57 29.86 8.21C29.86 7.85 29.57 7.56 29.21 7.56L26.02 7.56L26.02 8.86ZM26.02 11.9L29.28 11.9C29.71 11.9 30 11.61 30 11.18C30 10.75 29.71 10.46 29.28 10.46L26.02 10.46L26.02 11.9ZM31.16 9.59C31.59 10.02 31.88 10.6 31.88 11.25C31.88 12.55 30.87 13.57 29.57 13.57L24.29 13.57L24.29 5.97L29.5 5.97C30.73 5.97 31.74 6.98 31.74 8.21C31.67 8.72 31.45 9.23 31.16 9.59ZM32.39 22.61L30.44 22.61L29.86 21.31L25.59 21.31L25.01 22.61L23.05 22.61L26.82 15.02L28.55 15.02L32.39 22.61ZM27.69 16.97L26.38 19.72L28.99 19.72L27.69 16.97ZM30.29 24.28L32.46 24.28L28.63 29.2L28.63 31.88L26.82 31.88L26.82 29.2L22.98 24.28L25.15 24.28L27.76 27.75L30.29 24.28ZM40.35 24.28L40.35 25.94L35.29 25.94L35.29 27.25L40.21 27.25L40.21 28.91L35.29 28.91L35.29 30.36L40.35 30.36L40.35 32.02L33.48 32.02L33.48 24.28L40.35 24.28ZM45.92 28.98L44.55 28.98L44.55 31.88L42.74 31.88L42.74 24.28L47.37 24.28C48.67 24.28 49.69 25.36 49.69 26.67C49.69 27.75 48.96 28.62 48.02 28.91L50.27 31.88L48.09 31.88L45.92 28.98ZM47.23 25.87L44.62 25.87L44.62 27.32L47.23 27.32C47.66 27.32 47.95 26.96 47.95 26.59C47.95 26.23 47.59 25.87 47.23 25.87ZM23.78 31.88L21.82 31.88L21.25 30.57L16.98 30.57L16.4 31.88L14.44 31.88L18.28 24.28L20.02 24.28L23.78 31.88ZM19.07 26.23L17.77 28.98L20.45 28.98L19.07 26.23ZM7.57 27.17L10.75 27.17C11.11 27.17 11.4 26.88 11.4 26.52C11.4 26.16 11.11 25.87 10.75 25.87L7.57 25.87L7.57 27.17ZM7.57 30.21L10.82 30.21C11.26 30.21 11.55 29.92 11.55 29.49C11.55 29.05 11.26 28.77 10.82 28.77L7.57 28.77L7.57 30.21ZM12.71 27.9C13.14 28.33 13.43 28.91 13.43 29.56C13.43 30.86 12.42 31.88 11.11 31.88L5.76 31.88L5.76 24.28L10.97 24.28C12.2 24.28 13.21 25.29 13.21 26.52C13.21 27.03 13 27.54 12.71 27.9ZM31.16 33.47L31.16 35.13L26.09 35.13L26.09 36.44L31.02 36.44L31.02 38.1L26.09 38.1L26.09 39.55L31.16 39.55L31.16 41.21L24.29 41.21L24.29 33.47L31.16 33.47ZM29.86 45.27C29.86 44.83 29.57 44.54 29.13 44.54L26.02 44.54L26.02 45.99L29.13 45.99C29.57 45.99 29.86 45.7 29.86 45.27ZM24.21 50.55L24.21 42.95L29.28 42.95C30.58 42.95 31.59 44.04 31.59 45.34C31.59 46.35 31.02 47.15 30.15 47.51L32.46 50.55L30.29 50.55L28.12 47.65L26.02 47.65L26.02 50.55L24.21 50.55Z" fill="#10384F" fill-opacity="1.000000" fill-rule="nonzero"/>
		<path id="Vector" d="M55.11 26.45C54.25 12.12 42.3 0.69 27.69 0.69C13.07 0.69 1.13 12.12 0.26 26.45C0.26 27.03 0.33 27.61 0.4 28.19C0.98 32.96 2.79 37.38 5.54 41.07C10.53 47.87 18.57 52.29 27.69 52.29C14.95 52.29 4.53 42.37 3.66 29.92C3.59 29.34 3.59 28.77 3.59 28.19C3.59 27.61 3.59 27.03 3.66 26.45C4.53 14 14.95 4.09 27.69 4.09C36.8 4.09 44.84 8.5 49.83 15.3C52.58 19 54.39 23.41 54.97 28.19C55.04 28.77 55.11 29.34 55.11 29.85C55.11 29.27 55.19 28.69 55.19 28.11C55.19 27.61 55.19 27.03 55.11 26.45Z" fill="#89D329" fill-opacity="1.000000" fill-rule="nonzero"/>
		<path id="Vector" d="M0.26 29.92C1.13 44.25 13.07 55.69 27.69 55.69C42.3 55.69 54.25 44.25 55.11 29.92C55.11 29.34 55.04 28.77 54.97 28.19C54.39 23.41 52.58 19 49.83 15.3C44.84 8.5 36.8 4.09 27.69 4.09C40.42 4.09 50.84 14 51.71 26.45C51.78 27.03 51.78 27.61 51.78 28.19C51.78 28.77 51.78 29.34 51.71 29.92C50.84 42.44 40.42 52.29 27.69 52.29C18.57 52.29 10.53 47.87 5.54 41.07C2.79 37.38 0.98 32.96 0.4 28.19C0.33 27.61 0.26 27.03 0.26 26.52C0.26 27.1 0.19 27.68 0.19 28.26C0.19 28.77 0.19 29.34 0.26 29.92Z" fill="#00BCFF" fill-opacity="1.000000" fill-rule="nonzero"/>
	</g>
</svg>
