<svg width="11.000000" height="6.500000" viewBox="0 0 11 6.5" fill="none" xmlns="http://www.w3.org/2000/svg" xmlns:xlink="http://www.w3.org/1999/xlink">
	<desc>
			Created with Pixso.
	</desc>
	<defs/>
	<path id="chevron-down" d="M5.47 6.49C5.33 6.5 5.19 6.47 5.05 6.41C4.92 6.36 4.8 6.28 4.7 6.18L0.32 1.85C0.21 1.75 0.13 1.63 0.08 1.5C0.02 1.37 0 1.22 0 1.08C0 0.94 0.02 0.8 0.08 0.67C0.13 0.53 0.21 0.41 0.32 0.31C0.42 0.21 0.54 0.13 0.67 0.08C0.81 0.02 0.95 0 1.09 0C1.24 0 1.38 0.02 1.51 0.08C1.65 0.13 1.77 0.21 1.87 0.31L5.47 3.9L9.09 0.45C9.19 0.34 9.31 0.25 9.45 0.19C9.58 0.13 9.73 0.1 9.88 0.1C10.03 0.09 10.18 0.12 10.32 0.18C10.46 0.24 10.59 0.32 10.69 0.43C10.79 0.54 10.88 0.66 10.93 0.8C10.98 0.94 11 1.09 10.99 1.24C10.98 1.39 10.94 1.54 10.88 1.67C10.81 1.8 10.71 1.92 10.6 2.01L6.22 6.19C6.02 6.38 5.75 6.49 5.47 6.49Z" fill="#40B526" fill-opacity="1.000000" fill-rule="nonzero"/>
</svg>
