<svg width="22.000000" height="22.000000" viewBox="0 0 22 22" fill="none" xmlns="http://www.w3.org/2000/svg" xmlns:xlink="http://www.w3.org/1999/xlink">
	<defs>
		<clipPath id="clip3_311">
			<rect id="Credit Card Payment Large" rx="0.000000" width="21.000000" height="21.000000" transform="translate(0.500000 0.500000)" fill="white" fill-opacity="0"/>
		</clipPath>
	</defs>
	<rect id="Credit Card Payment Large" rx="0.000000" width="21.000000" height="21.000000" transform="translate(0.500000 0.500000)" fill="#000000" fill-opacity="0"/>
	<g clip-path="url(#clip3_311)">
		<path id="Vector" d="M18 4L4 4C3.2 4 2.44 4.31 1.87 4.87C1.31 5.44 1 6.2 1 7L1 15C1 15.79 1.31 16.55 1.87 17.12C2.44 17.68 3.2 18 4 18L18 18C18.79 18 19.55 17.68 20.12 17.12C20.68 16.55 21 15.79 21 15L21 7C21 6.2 20.68 5.44 20.12 4.87C19.55 4.31 18.79 4 18 4ZM3 7C3 6.73 3.1 6.48 3.29 6.29C3.48 6.1 3.73 6 4 6L18 6C18.26 6 18.51 6.1 18.7 6.29C18.89 6.48 19 6.73 19 7L19 8L3 8L3 7ZM19 15C19 15.26 18.89 15.51 18.7 15.7C18.51 15.89 18.26 16 18 16L4 16C3.73 16 3.48 15.89 3.29 15.7C3.1 15.51 3 15.26 3 15L3 10L19 10L19 15Z" fill="#000000" fill-opacity="1.000000" fill-rule="nonzero"/>
		<path id="Vector" d="M6 14L10 14C10.26 14 10.51 13.89 10.7 13.7C10.89 13.51 11 13.26 11 13C11 12.73 10.89 12.48 10.7 12.29C10.51 12.1 10.26 12 10 12L6 12C5.73 12 5.48 12.1 5.29 12.29C5.1 12.48 5 12.73 5 13C5 13.26 5.1 13.51 5.29 13.7C5.48 13.89 5.73 14 6 14Z" fill="#000000" fill-opacity="1.000000" fill-rule="nonzero"/>
		<path id="Vector" d="M14 14L16 14C16.26 14 16.51 13.89 16.7 13.7C16.89 13.51 17 13.26 17 13C17 12.73 16.89 12.48 16.7 12.29C16.51 12.1 16.26 12 16 12L14 12C13.73 12 13.48 12.1 13.29 12.29C13.1 12.48 13 12.73 13 13C13 13.26 13.1 13.51 13.29 13.7C13.48 13.89 13.73 14 14 14Z" fill="#000000" fill-opacity="1.000000" fill-rule="nonzero"/>
	</g>
</svg>
