<svg width="111.708115" height="31.619164" viewBox="0 0 111.708 31.6192" fill="none" xmlns="http://www.w3.org/2000/svg" xmlns:xlink="http://www.w3.org/1999/xlink">
	<desc>
			Created with Pixso.
	</desc>
	<defs/>
	<path id="Fill 1" d="M21.73 0L10.59 0C4.75 0 0 4.29 0 9.57L0 18.97L4.46 18.97L4.46 9.57C4.46 6.57 7.27 4.03 10.59 4.03L13.9 4.03L13.9 18.97L18.37 18.97L18.37 4.03L21.73 4.03C25.08 4.03 27.8 6.51 27.8 9.57L27.8 18.97L32.27 18.97L32.27 9.57C32.27 4.29 27.54 0 21.73 0Z" fill="#77BE80" fill-opacity="1.000000" fill-rule="evenodd"/>
	<path id="Fill 2" d="M65.32 4.03L65.32 0L46.42 0C40.48 0 35.83 4.13 35.83 9.4C35.83 14.68 40.58 18.97 46.42 18.97L65.32 18.97L65.32 14.94L46.42 14.94C43.91 14.94 41.71 13.56 40.78 11.51L61.13 11.51L61.13 7.46L40.71 7.46C41.58 5.41 43.81 4.03 46.42 4.03L65.32 4.03Z" fill="#628BC7" fill-opacity="1.000000" fill-rule="evenodd"/>
	<path id="Fill 3" d="M88.53 0L69.47 0L69.47 18.97L88.53 18.97C94.38 18.97 99.13 14.68 99.13 9.4C99.13 4.13 94.48 0 88.53 0ZM88.53 14.94L73.94 14.94L73.94 4.03L88.53 4.03C91.96 4.03 94.64 6.39 94.64 9.4C94.64 12.46 91.9 14.94 88.53 14.94Z" fill="#3B64A1" fill-opacity="1.000000" fill-rule="evenodd"/>
	<path id="Fill 4" d="M111.23 19.78L101.99 15.15C101.8 15.06 101.63 15.01 101.48 15.01C101.39 15.01 101.31 15.03 101.24 15.06C100.93 15.23 100.93 15.7 100.93 15.71L100.93 24.91C100.93 25.23 101.02 25.44 101.21 25.54C101.51 25.7 101.97 25.48 101.99 25.47L111.23 20.84C111.54 20.68 111.7 20.51 111.7 20.33C111.7 20.02 111.25 19.79 111.23 19.78Z" fill="#40B526" fill-opacity="1.000000" fill-rule="evenodd"/>
	<path id="Fill 5" d="M88.7 31.55L90.33 31.55L90.33 22.12L88.7 22.12L88.7 31.55Z" fill="#6B8495" fill-opacity="1.000000" fill-rule="evenodd"/>
	<path id="Fill 6" d="M79.56 22.12L69.47 22.12L69.47 31.61L79.56 31.61C82.56 31.61 84.99 29.46 84.99 26.82C84.99 24.15 82.56 22.12 79.56 22.12ZM79.56 30.15L71.12 30.15L71.12 23.58L79.56 23.58C81.64 23.58 83.33 24.98 83.33 26.82C83.33 28.64 81.64 30.15 79.56 30.15Z" fill="#6B8495" fill-opacity="1.000000" fill-rule="evenodd"/>
	<path id="Fill 7" d="M65.28 26.82C65.28 29.46 62.9 31.61 59.88 31.61L56.55 31.61C53.55 31.61 51.12 29.46 51.12 26.82L51.12 22.12L52.77 22.12L52.77 26.82C52.77 28.64 54.48 30.16 56.55 30.16L59.88 30.16C61.95 30.16 63.63 28.64 63.63 26.82L63.63 22.12L65.28 22.12L65.28 26.82Z" fill="#6B8495" fill-opacity="1.000000" fill-rule="evenodd"/>
	<path id="Fill 8" d="M32.33 22.12L32.33 23.57L38.95 23.57L38.95 31.61L40.6 31.61L40.6 23.57L47.23 23.57L47.23 22.12L32.33 22.12Z" fill="#6B8495" fill-opacity="1.000000" fill-rule="evenodd"/>
	<path id="Fill 9" d="M29.38 28.67C29.38 30.28 27.87 31.61 26.04 31.61L15.88 31.61L14.72 31.61L14.72 30.14C14.72 30.14 15.44 30.15 15.9 30.15L26.04 30.15C26.94 30.15 27.72 29.46 27.72 28.67C27.72 27.87 26.94 27.17 26.04 27.17L16.46 27.17C14.91 27.17 13.54 26.12 13.54 24.7C13.54 23.3 14.88 22.12 16.46 22.12L28.32 22.12L28.33 23.58C28.33 23.58 27.17 23.56 26.8 23.56L16.46 23.56C15.81 23.56 15.21 23.98 15.21 24.6C15.21 25.19 15.8 25.71 16.46 25.71L26.04 25.71C27.87 25.71 29.38 27.05 29.38 28.67Z" fill="#6B8495" fill-opacity="1.000000" fill-rule="evenodd"/>
	<path id="Fill 10" d="M109.86 26.72C109.86 28.55 108.16 30.05 106.1 30.05L100.67 30.05C98.6 30.05 96.92 28.55 96.92 26.72C96.92 25.23 98.03 24.02 99.57 23.62L99.57 22.12C97.09 22.55 95.25 24.41 95.25 26.72C95.25 29.37 97.67 31.5 100.67 31.5L106.1 31.5C109.09 31.5 111.52 29.37 111.52 26.72C111.52 25.19 110.7 23.86 109.44 23.01L107.8 23.83C109.02 24.36 109.86 25.44 109.86 26.72Z" fill="#6B8495" fill-opacity="1.000000" fill-rule="evenodd"/>
</svg>
