<svg width="22.000000" height="22.000000" viewBox="0 0 22 22" fill="none" xmlns="http://www.w3.org/2000/svg" xmlns:xlink="http://www.w3.org/1999/xlink">
	<desc>
			Created with Pixso.
	</desc>
	<defs>
		<clipPath id="clip24463_1207">
			<rect id="Knowledge Large (Not In Eva)" rx="0.000000" width="21.000000" height="21.000000" transform="translate(0.500000 0.500000)" fill="white" fill-opacity="0"/>
		</clipPath>
	</defs>
	<g clip-path="url(#clip24463_1207)">
		<path id="Rectangle 149" d="M20.76 5.9C20.84 5.93 20.84 6.06 20.76 6.09L11.03 9.87C11.01 9.88 10.98 9.88 10.96 9.87L1.23 6.09C1.15 6.06 1.15 5.93 1.23 5.9L10.96 2.12C10.98 2.11 11.01 2.11 11.03 2.12L20.76 5.9Z" stroke="#FFFFFF" stroke-opacity="1.000000" stroke-width="2.000000" stroke-linejoin="round"/>
		<path id="Rectangle 150" d="M18 8L18 14.24C18 14.68 17.7 15.07 17.27 15.18C16.06 15.47 13.53 16 11 16" stroke="#FFFFFF" stroke-opacity="1.000000" stroke-width="2.000000" stroke-linejoin="round" stroke-linecap="round"/>
		<path id="Vector 12" d="M11 6L6 8L6 13" stroke="#FFFFFF" stroke-opacity="1.000000" stroke-width="2.000000" stroke-linejoin="round" stroke-linecap="round"/>
		<path id="Polygon 104" d="M3.4 19L8.59 19L6 13L3.4 19Z" stroke="#FFFFFF" stroke-opacity="1.000000" stroke-width="2.000000" stroke-linejoin="round"/>
	</g>
</svg>
