<svg width="76.572266" height="16.000000" viewBox="0 0 76.5723 16" fill="none" xmlns="http://www.w3.org/2000/svg" xmlns:xlink="http://www.w3.org/1999/xlink">
	<desc>
			Created with Pixso.
	</desc>
	<defs>
		<clipPath id="clip2_345">
			<rect id="Frame 11" rx="0.000000" width="23.572266" height="15.000000" transform="translate(0.500000 0.500000)" fill="white" fill-opacity="0"/>
		</clipPath>
		<clipPath id="clip2_347">
			<rect id="Frame 12" rx="7.500000" width="47.000000" height="15.000000" transform="translate(29.072266 0.500000)" fill="white" fill-opacity="0"/>
		</clipPath>
		<clipPath id="clip2_348">
			<rect id="MS Club Badge" rx="0.000000" width="75.572266" height="15.000000" transform="translate(0.500000 0.500000)" fill="white" fill-opacity="0"/>
		</clipPath>
	</defs>
	<g clip-path="url(#clip2_348)">
		<g clip-path="url(#clip2_345)">
			<path id="МS" d="M15.03 10.07C15.21 13.05 16.67 14.46 19.8 14.46C23.06 14.46 24.57 12.96 24.57 10.79C24.57 5.96 17.48 7.74 17.48 5.06C17.48 4.23 18.16 3.55 19.78 3.55C21.36 3.55 21.96 4.13 22.08 5.57L24.39 5.57C24.21 2.87 22.86 1.53 19.8 1.53C16.72 1.53 15.21 3.03 15.21 5.04C15.21 9.67 22.3 7.94 22.3 10.75C22.3 11.69 21.53 12.42 19.8 12.42C18.14 12.42 17.46 11.78 17.33 10.07L15.03 10.07ZM2.89 6.02L4.95 10.97L7.1 10.97L9.14 6.02L9.9 4.09L9.9 14.3L12.06 14.3L12.06 1.7L8.85 1.7L6.04 8.52L3.23 1.7L0 1.7L0 14.3L2.15 14.3L2.15 4.11L2.89 6.02Z" fill="#40B526" fill-opacity="1.000000" fill-rule="evenodd"/>
		</g>
		<rect id="Frame 12" rx="7.500000" width="47.000000" height="15.000000" transform="translate(29.072266 0.500000)" fill="#252D33" fill-opacity="1.000000"/>
		<g clip-path="url(#clip2_347)">
			<path id="CLUB" d="M41.84 4.5Q41.81 4.35 41.74 4.23Q41.64 4.08 41.44 3.99Q40.96 3.75 40.41 3.62Q40.36 3.61 40.31 3.6L40.31 3.6L40.31 3.6L40.31 3.6Q39.81 3.5 39.28 3.5Q38.26 3.5 37.4 3.83Q36.7 4.1 36.15 4.54L36.15 4.54L36.15 4.54Q36.01 4.65 35.89 4.77Q35.7 4.95 35.53 5.15L35.53 5.15Q35.15 5.61 34.91 6.18Q34.57 6.99 34.57 7.96Q34.57 9.08 34.95 9.94Q35.27 10.65 35.79 11.17Q35.88 11.26 35.98 11.35Q36.25 11.58 36.56 11.77L36.56 11.77L36.56 11.77Q36.99 12.03 37.49 12.21Q37.54 12.22 37.59 12.24Q38.4 12.5 39.28 12.5Q39.66 12.5 40.03 12.43C40.27 12.4 40.51 12.35 40.75 12.28C40.99 12.21 41.23 12.11 41.46 12C41.67 11.9 41.8 11.74 41.85 11.53C41.9 11.3 41.84 11.08 41.67 10.87C41.54 10.72 41.39 10.63 41.21 10.61C41.03 10.58 40.85 10.61 40.67 10.7C40.45 10.8 40.22 10.88 39.99 10.92Q39.64 10.98 39.28 10.98Q38.64 10.98 38.09 10.81C37.72 10.68 37.4 10.49 37.13 10.24Q36.73 9.86 36.49 9.3C36.34 8.92 36.27 8.48 36.27 7.96Q36.27 7.31 36.47 6.77Q36.63 6.35 36.9 6.03L36.9 6.02Q36.98 5.93 37.07 5.84Q37.16 5.74 37.26 5.66L37.26 5.66Q37.59 5.38 38.01 5.22Q38.57 5.01 39.28 5.01C39.53 5.01 39.77 5.03 40 5.08Q40.36 5.16 40.67 5.3C40.85 5.38 41.03 5.41 41.21 5.4C41.39 5.38 41.54 5.3 41.65 5.14C41.82 4.95 41.88 4.74 41.84 4.5ZM59.46 3.55C59.69 3.55 59.87 3.62 60.01 3.77Q60.08 3.85 60.13 3.93Q60.22 4.1 60.22 4.31L60.22 8.87Q60.22 9.8 59.84 10.55L59.84 10.55Q59.8 10.64 59.75 10.72C59.44 11.26 59.02 11.68 58.48 11.98Q57.67 12.43 56.59 12.43Q55.52 12.43 54.69 11.98L54.69 11.98C54.15 11.68 53.73 11.26 53.41 10.72Q53.38 10.67 53.35 10.61L53.35 10.61Q52.95 9.85 52.95 8.87L52.95 4.31Q52.95 4.14 53.02 3.99Q53.08 3.87 53.19 3.77Q53.26 3.7 53.34 3.66Q53.53 3.55 53.79 3.55C53.99 3.55 54.17 3.62 54.33 3.77Q54.45 3.88 54.52 4.02Q54.58 4.15 54.58 4.31L54.58 8.87Q54.58 9.5 54.85 9.96C55.04 10.27 55.29 10.5 55.6 10.67C55.91 10.84 56.24 10.92 56.59 10.92C56.97 10.92 57.32 10.84 57.64 10.67C57.96 10.5 58.23 10.27 58.43 9.96C58.63 9.65 58.73 9.29 58.73 8.87L58.73 4.31C58.73 4.1 58.79 3.91 58.92 3.77C59.06 3.62 59.23 3.55 59.46 3.55ZM50.16 11.11C50.02 10.97 49.83 10.9 49.6 10.9L46.18 10.9L46.18 4.33Q46.18 4.16 46.12 4.03Q46.06 3.89 45.93 3.78C45.78 3.63 45.59 3.56 45.38 3.56C45.14 3.56 44.94 3.63 44.78 3.78Q44.67 3.88 44.61 4Q44.55 4.15 44.55 4.33L44.55 11.6Q44.55 11.78 44.61 11.93L44.61 11.93Q44.67 12.05 44.77 12.16C44.93 12.3 45.12 12.37 45.34 12.37L49.6 12.37C49.83 12.37 50.02 12.3 50.16 12.17C50.32 12.03 50.4 11.85 50.4 11.64C50.4 11.42 50.32 11.24 50.16 11.11ZM69.47 4.12Q68.85 3.56 67.59 3.56L64.29 3.56C64.07 3.56 63.88 3.63 63.72 3.78C63.57 3.93 63.5 4.11 63.5 4.33L63.5 11.6Q63.5 11.78 63.56 11.93Q63.62 12.05 63.72 12.16C63.88 12.3 64.07 12.37 64.29 12.37L67.56 12.37C67.88 12.37 68.21 12.34 68.56 12.27C68.91 12.19 69.24 12.06 69.55 11.87C69.85 11.67 70.1 11.4 70.28 11.05C70.47 10.7 70.57 10.24 70.57 9.69C70.57 9.18 70.46 8.77 70.24 8.45Q70.04 8.14 69.77 7.93Q69.61 7.8 69.43 7.7C69.29 7.62 69.14 7.55 68.99 7.49C69.34 7.33 69.6 7.11 69.78 6.84C69.98 6.54 70.08 6.19 70.08 5.8C70.08 5.06 69.88 4.5 69.47 4.12ZM65.2 5.04L67.36 5.04C67.66 5.04 67.91 5.13 68.09 5.3C68.28 5.45 68.38 5.71 68.38 6.08C68.38 6.38 68.28 6.61 68.08 6.77Q67.92 6.89 67.74 6.95Q67.58 7.01 67.4 7.01L65.2 7.01L65.2 5.04ZM65.2 8.49L67.46 8.49C67.65 8.49 67.85 8.51 68.07 8.56C68.28 8.6 68.47 8.7 68.63 8.87C68.79 9.04 68.86 9.31 68.86 9.69Q68.86 10.22 68.6 10.53Q68.56 10.58 68.51 10.62C68.28 10.82 67.96 10.92 67.56 10.92L65.2 10.92L65.2 8.49Z" fill="#94A9B7" fill-opacity="1.000000" fill-rule="evenodd"/>
		</g>
	</g>
</svg>
