<svg width="34.545456" height="38.000000" viewBox="0 0 34.5455 38" fill="none" xmlns="http://www.w3.org/2000/svg" xmlns:xlink="http://www.w3.org/1999/xlink">
	<desc>
			Created with Pixso.
	</desc>
	<defs/>
	<path id="nmo-logo" d="M30.71 32.58C29.34 32.68 23.54 33.67 20.55 35.65C19.47 36.36 17.29 38 17.29 38C17.29 38 14.88 36.01 13.64 35.13C12.17 34.1 9.29 32.9 3.89 32.61C1.59 32.49 0 30.71 0 28.53L0.04 5.18C-0.04 3.8 0.38 1.86 1.82 0.77C3.28 -0.33 5.23 -0.26 7.63 0.99C7.79 1.07 23.93 9.72 23.93 18.6C23.93 20.75 23.19 22.65 21.86 23.96C20.68 25.11 19.13 25.74 17.49 25.74C14.1 25.74 11.54 23.08 11.54 19.56C11.54 16.39 12.9 14.58 13.96 13.62C13.96 13.62 14.65 14.26 15.67 15.43C16.48 16.35 17.01 17.21 17.01 17.21C16.95 17.26 15.95 18.19 15.95 19.45C15.95 20.71 17.16 21.06 17.52 21.06C18.06 21.06 18.54 20.72 18.9 20.37C19.3 19.98 19.5 19.38 19.5 18.6C19.5 14.61 10.53 7.85 5.72 5.34C5.11 5.02 4.7 4.89 4.46 4.85C4.46 4.88 4.46 4.9 4.46 4.93L4.47 5.03L4.46 5.09L4.46 27.82C7.69 27.98 10.46 28.51 12.76 29.37C14.96 30.2 17.41 32.08 17.41 32.08C17.41 32.08 19.52 30.64 21.86 29.76C25.03 28.58 28.54 27.95 30.12 27.79L30.12 5.61C27.67 5.91 24.56 8.46 22.66 10.16C22.66 10.16 22.01 9.34 21.27 8.56C20.35 7.6 19.28 6.63 19.28 6.63C19.94 6.04 25.78 0.75 30.56 0.75C32.98 0.75 34.54 2.46 34.54 5.09L34.54 28.08C34.48 29.49 33.69 32.35 30.71 32.58Z" fill="#FFFFFF" fill-opacity="1.000000" fill-rule="evenodd"/>
</svg>
