<svg width="22.000000" height="22.000000" viewBox="0 0 22 22" fill="none" xmlns="http://www.w3.org/2000/svg" xmlns:xlink="http://www.w3.org/1999/xlink">
	<desc>
			Created with Pixso.
	</desc>
	<defs>
		<clipPath id="clip24463_1318">
			<rect id="Question Large" rx="0.000000" width="21.000000" height="21.000000" transform="translate(0.500000 0.500000)" fill="white" fill-opacity="0"/>
		</clipPath>
	</defs>
	<rect id="Question Large" rx="0.000000" width="21.000000" height="21.000000" transform="translate(0.500000 0.500000)" fill="#FFFFFF" fill-opacity="0"/>
	<g clip-path="url(#clip24463_1318)">
		<path id="Vector" d="M11 1C9.02 1 7.08 1.58 5.44 2.68C3.79 3.78 2.51 5.34 1.76 7.17C1 9 0.8 11.01 1.19 12.95C1.57 14.89 2.53 16.67 3.92 18.07C5.32 19.46 7.1 20.42 9.04 20.8C10.98 21.19 12.99 20.99 14.82 20.23C16.65 19.48 18.21 18.2 19.31 16.55C20.41 14.91 21 12.97 21 11C21 9.68 20.74 8.38 20.23 7.17C19.73 5.95 18.99 4.85 18.07 3.92C17.14 3 16.04 2.26 14.82 1.76C13.61 1.25 12.31 1 11 1ZM11 19C9.41 19 7.87 18.53 6.55 17.65C5.23 16.77 4.21 15.52 3.6 14.06C3 12.59 2.84 10.99 3.15 9.43C3.46 7.88 4.22 6.46 5.34 5.34C6.46 4.22 7.88 3.46 9.43 3.15C10.99 2.84 12.59 3 14.06 3.6C15.52 4.21 16.77 5.23 17.65 6.55C18.53 7.87 19 9.41 19 11C19 13.12 18.15 15.15 16.65 16.65C15.15 18.15 13.12 19 11 19Z" fill="#3B64A1" fill-opacity="1.000000" fill-rule="nonzero"/>
		<path id="Vector" d="M11 5C10.07 5 9.18 5.36 8.52 6.02C7.86 6.68 7.5 7.57 7.5 8.5C7.5 8.76 7.6 9.01 7.79 9.2C7.98 9.39 8.23 9.5 8.5 9.5C8.76 9.5 9.01 9.39 9.2 9.2C9.39 9.01 9.5 8.76 9.5 8.5C9.5 8.2 9.58 7.91 9.75 7.66C9.91 7.42 10.15 7.22 10.42 7.11C10.7 7 11 6.97 11.29 7.02C11.58 7.08 11.85 7.22 12.06 7.43C12.27 7.64 12.41 7.91 12.47 8.2C12.52 8.49 12.49 8.8 12.38 9.07C12.27 9.34 12.08 9.58 11.83 9.74C11.58 9.91 11.29 10 11 10C10.73 10 10.48 10.1 10.29 10.29C10.1 10.48 10 10.73 10 11L10 13C10 13.26 10.1 13.51 10.29 13.7C10.48 13.89 10.73 14 11 14C11.26 14 11.51 13.89 11.7 13.7C11.89 13.51 12 13.26 12 13L12 11.84C12.8 11.6 13.5 11.08 13.95 10.37C14.41 9.66 14.59 8.81 14.47 7.98C14.35 7.15 13.93 6.39 13.29 5.84C12.65 5.29 11.84 4.99 11 5Z" fill="#3B64A1" fill-opacity="1.000000" fill-rule="nonzero"/>
		<path id="Vector" d="M12 16C12 16.55 11.55 17 11 17C10.44 17 10 16.55 10 16C10 15.44 10.44 15 11 15C11.55 15 12 15.44 12 16Z" fill="#3B64A1" fill-opacity="1.000000" fill-rule="evenodd"/>
	</g>
</svg>
