<svg width="36.000000" height="36.000000" viewBox="0 0 36 36" fill="none" xmlns="http://www.w3.org/2000/svg" xmlns:xlink="http://www.w3.org/1999/xlink">
	<defs>
		<clipPath id="clip24463_1308">
			<rect id="Big Award Icon" rx="0.000000" width="35.000000" height="35.000000" transform="translate(0.500000 0.500000)" fill="white" fill-opacity="0"/>
		</clipPath>
	</defs>
	<g clip-path="url(#clip24463_1308)">
		<path id="Rectangle 32" d="M25 7L25 17C25 20.86 21.86 24 18 24C14.13 24 11 20.86 11 17L11 7L25 7Z" stroke="#3B64A1" stroke-opacity="1.000000" stroke-width="3.000000" stroke-linejoin="round"/>
		<path id="Vector 1" d="M25 12C25.42 10.5 26.71 9 28.42 9C30.14 9 31 10.5 31 12C31 15 28.42 16.5 25 18" stroke="#3B64A1" stroke-opacity="1.000000" stroke-width="3.000000" stroke-linejoin="round" stroke-linecap="round"/>
		<path id="Vector 6" d="M11 12C10.57 10.5 9.28 9 7.57 9C5.85 9 5 10.5 5 12C5 15 7.57 16.5 11 18" stroke="#3B64A1" stroke-opacity="1.000000" stroke-width="3.000000" stroke-linejoin="round" stroke-linecap="round"/>
		<path id="Vector 3" d="M18 24L18 30" stroke="#3B64A1" stroke-opacity="1.000000" stroke-width="3.000000" stroke-linejoin="round" stroke-linecap="round"/>
		<path id="Vector 4" d="M12 30L24 30" stroke="#3B64A1" stroke-opacity="1.000000" stroke-width="3.000000" stroke-linejoin="round" stroke-linecap="round"/>
	</g>
</svg>
