<svg width="22.000000" height="22.000000" viewBox="0 0 22 22" fill="none" xmlns="http://www.w3.org/2000/svg" xmlns:xlink="http://www.w3.org/1999/xlink">
	<desc>
			Created with Pixso.
	</desc>
	<defs/>
	<rect id="Sync Large" rx="0.000000" width="20.900000" height="20.900000" transform="translate(0.550000 0.550000)" fill="#FFFFFF" fill-opacity="0"/>
	<path id="sync-outline" d="M21.19 8.98C21.18 9.06 21.15 9.13 21.12 9.19C21.11 9.26 21.09 9.31 21.07 9.37C21.02 9.43 20.97 9.49 20.92 9.55L20.84 9.66C20.77 9.71 20.7 9.75 20.63 9.78C20.6 9.81 20.56 9.83 20.52 9.85C20.41 9.89 20.29 9.91 20.17 9.91L20 9.91L15.55 9.13C15.41 9.1 15.28 9.05 15.16 8.98C15.04 8.9 14.94 8.8 14.86 8.68C14.77 8.56 14.72 8.43 14.68 8.28C14.65 8.14 14.65 7.99 14.67 7.85C14.69 7.7 14.74 7.56 14.81 7.44C14.88 7.31 14.98 7.21 15.09 7.12C15.21 7.03 15.33 6.97 15.47 6.94C15.6 6.9 15.74 6.9 15.88 6.92L17.61 7.22C16.95 6.01 15.99 5.01 14.85 4.32C13.7 3.63 12.4 3.26 11.07 3.27C9.58 3.24 8.11 3.69 6.86 4.56C5.61 5.43 4.64 6.68 4.08 8.14C4.03 8.27 3.95 8.39 3.85 8.5C3.76 8.6 3.64 8.68 3.51 8.74C3.38 8.8 3.25 8.83 3.11 8.83C2.97 8.83 2.83 8.8 2.71 8.74C2.45 8.63 2.24 8.42 2.14 8.15C2.03 7.88 2.03 7.58 2.13 7.31C2.84 5.55 4 4.03 5.49 2.93C6.97 1.84 8.72 1.2 10.54 1.11C12.35 1.01 14.15 1.45 15.74 2.39C17.32 3.32 18.62 4.7 19.5 6.38L19.88 4.17C19.93 3.88 20.09 3.62 20.32 3.45C20.56 3.28 20.84 3.22 21.12 3.27C21.4 3.32 21.64 3.49 21.8 3.73C21.97 3.98 22.03 4.28 21.98 4.57L21.19 8.98ZM18.85 13.19C18.99 13.19 19.13 13.22 19.25 13.28C19.51 13.38 19.72 13.59 19.83 13.85C19.94 14.12 19.95 14.42 19.85 14.69C19.14 16.45 17.98 17.96 16.49 19.06C15 20.15 13.25 20.79 11.44 20.88C9.63 20.98 7.83 20.53 6.24 19.6C4.66 18.67 3.36 17.28 2.49 15.6L2.1 17.81C2.05 18.07 1.92 18.3 1.73 18.46C1.54 18.63 1.3 18.72 1.05 18.71L0.86 18.71C0.72 18.69 0.59 18.63 0.47 18.55C0.35 18.47 0.25 18.36 0.17 18.23C0.09 18.11 0.03 17.97 0.01 17.82C-0.01 17.67 -0.01 17.52 0.02 17.37L0.81 12.96C0.82 12.89 0.85 12.83 0.88 12.77C0.9 12.7 0.92 12.63 0.96 12.56L1.05 12.45C1.11 12.37 1.17 12.31 1.24 12.25C1.34 12.18 1.46 12.13 1.57 12.1L1.66 12.1C1.77 12.07 1.89 12.07 2 12.1L6.46 12.86C6.73 12.88 6.99 13.02 7.17 13.24C7.35 13.47 7.44 13.76 7.42 14.05C7.4 14.34 7.27 14.61 7.05 14.8C6.84 14.99 6.57 15.09 6.29 15.06L6.12 15.06L4.39 14.77C5.05 15.97 6.01 16.97 7.16 17.67C8.3 18.36 9.6 18.72 10.93 18.71C12.41 18.74 13.87 18.29 15.11 17.43C16.35 16.57 17.31 15.34 17.88 13.89C17.93 13.76 18.01 13.63 18.11 13.53C18.2 13.42 18.32 13.34 18.45 13.28C18.57 13.23 18.71 13.2 18.85 13.19Z" fill="#3B64A1" fill-opacity="1.000000" fill-rule="evenodd"/>
</svg>
