<svg width="22.000000" height="22.000000" viewBox="0 0 22 22" fill="none" xmlns="http://www.w3.org/2000/svg" xmlns:xlink="http://www.w3.org/1999/xlink">
	<desc>
			Created with Pixso.
	</desc>
	<defs>
		<clipPath id="clip24463_1311">
			<rect id="Clock Large" rx="0.000000" width="21.000000" height="21.000000" transform="translate(0.500000 0.500000)" fill="white" fill-opacity="0"/>
		</clipPath>
	</defs>
	<rect id="Clock Large" rx="0.000000" width="21.000000" height="21.000000" transform="translate(0.500000 0.500000)" fill="#FFFFFF" fill-opacity="0"/>
	<g clip-path="url(#clip24463_1311)">
		<path id="Vector" d="M11 1C9.02 1 7.08 1.58 5.44 2.68C3.79 3.78 2.51 5.34 1.76 7.17C1 9 0.8 11.01 1.19 12.95C1.57 14.89 2.53 16.67 3.92 18.07C5.32 19.46 7.1 20.42 9.04 20.8C10.98 21.19 12.99 20.99 14.82 20.23C16.65 19.48 18.21 18.2 19.31 16.55C20.41 14.91 21 12.97 21 11C21 9.68 20.74 8.38 20.23 7.17C19.73 5.95 18.99 4.85 18.07 3.92C17.14 3 16.04 2.26 14.82 1.76C13.61 1.25 12.31 1 11 1ZM11 19C9.41 19 7.87 18.53 6.55 17.65C5.23 16.77 4.21 15.52 3.6 14.06C3 12.59 2.84 10.99 3.15 9.43C3.46 7.88 4.22 6.46 5.34 5.34C6.46 4.22 7.88 3.46 9.43 3.15C10.99 2.84 12.59 3 14.06 3.6C15.52 4.21 16.77 5.23 17.65 6.55C18.53 7.87 19 9.41 19 11C19 13.12 18.15 15.15 16.65 16.65C15.15 18.15 13.12 19 11 19Z" fill="#3B64A1" fill-opacity="1.000000" fill-rule="nonzero"/>
		<path id="Vector" d="M15 10L12 10L12 7C12 6.73 11.89 6.48 11.7 6.29C11.51 6.1 11.26 6 11 6C10.73 6 10.48 6.1 10.29 6.29C10.1 6.48 10 6.73 10 7L10 11C10 11.26 10.1 11.51 10.29 11.7C10.48 11.89 10.73 12 11 12L15 12C15.26 12 15.51 11.89 15.7 11.7C15.89 11.51 16 11.26 16 11C16 10.73 15.89 10.48 15.7 10.29C15.51 10.1 15.26 10 15 10Z" fill="#3B64A1" fill-opacity="1.000000" fill-rule="nonzero"/>
	</g>
</svg>
